<?xml version="1.0" encoding="UTF-8"?>
<svg id="Livello_1" data-name="Livello 1" xmlns="http://www.w3.org/2000/svg" viewBox="0 0 283.46 130.39">
  <defs>
    <style>
      .cls-1 {
        fill: #040603;
      }
    </style>
  </defs>
  <path class="cls-1" d="M81.55,16.49l-1.08-.02h-.03s-.1,0-.1,0l-1.46,.03c-9,.41-16.67,4.19-22.18,10.95-5.37,6.59-8.33,15.78-8.33,25.87s2.96,19.28,8.33,25.87c5.61,6.88,13.45,10.67,22.7,10.96l1.24,.02,1.4-.02c8.99-.39,16.65-4.17,22.17-10.93,5.38-6.6,8.34-15.79,8.34-25.9s-2.96-19.3-8.34-25.9c-5.62-6.89-13.46-10.66-22.67-10.93m21.6,36.83c0,16.38-9.33,27.87-22.68,27.95-13.36-.08-22.7-11.58-22.7-27.95,0-16.38,9.33-27.87,22.68-27.95,13.37,.08,22.7,11.58,22.7,27.95"/>
  <polygon class="cls-1" points="145.59 74.79 125.03 18.03 115 18.03 140.85 88.61 150.27 88.61 176.28 18.03 166.31 18.03 145.59 74.79"/>
  <path class="cls-1" d="M210.68,48.38l-1.61-.33c-9.88-2.01-18.41-3.75-18.41-11.52,0-8.24,8.18-11.16,15.19-11.16,11.37,0,17.83,5.01,18.2,14.1l.1,2.61h9.44l-.14-2.83c-.64-14.46-10.7-22.76-27.6-22.76h0c-6.42,0-12.36,1.69-16.73,4.75-5.14,3.6-7.86,8.9-7.86,15.3,0,14.97,14.06,17.88,24.33,20l1.03,.21c10.23,2.09,19.07,3.89,19.07,12.38,0,9.6-10.18,12.17-16.19,12.17-7.69,0-13.84-2.03-17.3-5.72-2.57-2.74-3.73-6.45-3.47-11.04l.16-2.87h-9.53l-.03,2.68c-.08,7.39,2.08,13.37,6.42,17.78,5.18,5.27,13.39,8.05,23.75,8.05,6.11,0,12.18-1.66,16.64-4.54,5.86-3.79,8.96-9.5,8.96-16.52,0-15.72-14.69-18.74-24.42-20.73"/>
  <path class="cls-1" d="M257.44,106.99l-.61-1.14c-.05-.09-.12-.14-.22-.14h-1.67c-.1,0-.15,.04-.15,.11,0,.03,.01,.07,.04,.11l.87,1.16c.05,.07,.12,.11,.22,.11h1.39c.11,0,.16-.05,.16-.14,0,0,0-.04-.03-.09m-1.65,6.59l.78-2.77s.02-.04,.04-.04c.02,0,.03,.01,.04,.04l.79,2.77s0,.07-.05,.07h-1.55s-.06-.02-.05-.07m2.69,3.03h2.12c.11,0,.17-.04,.17-.14,0-.03,0-.06-.01-.08l-2.61-8.31c-.03-.1-.1-.15-.21-.15h-2.62c-.11,0-.18,.05-.21,.15l-2.61,8.31c-.04,.14,.01,.21,.16,.21h2.12c.12,0,.19-.05,.21-.16l.27-.97s.04-.05,.06-.05h2.62s.05,.02,.06,.05l.27,.97c.02,.11,.1,.16,.21,.16m-8.36-8.67h-6.55c-.06,0-.1,.02-.14,.05-.03,.03-.05,.08-.05,.14v1.63c0,.06,.02,.1,.05,.14,.03,.03,.08,.05,.14,.05h2.02s.06,.02,.06,.06v6.41c0,.06,.02,.1,.05,.14,.03,.03,.08,.05,.14,.05h1.96c.06,0,.1-.02,.14-.05,.03-.03,.05-.08,.05-.14v-6.41s.02-.06,.06-.06h2.08c.06,0,.1-.02,.14-.05,.03-.03,.05-.08,.05-.14v-1.63c0-.06-.02-.1-.05-.14-.03-.03-.08-.05-.14-.05m-12.12,8.67h1.96c.06,0,.1-.02,.14-.05,.03-.03,.05-.08,.05-.14v-8.3c0-.06-.02-.1-.05-.14-.03-.03-.08-.05-.14-.05h-1.96c-.06,0-.1,.02-.14,.05-.03,.03-.05,.08-.05,.14v8.3c0,.06,.02,.1,.05,.14,.03,.03,.08,.05,.14,.05m-9.65,0h6.03c.06,0,.1-.02,.14-.05,.03-.03,.05-.08,.05-.14v-1.62c0-.06-.02-.1-.05-.14-.03-.03-.08-.05-.14-.05h-3.83s-.06-.02-.06-.06v-6.43c0-.06-.02-.1-.05-.14-.03-.03-.08-.05-.14-.05h-1.96c-.06,0-.1,.02-.14,.05-.03,.03-.05,.08-.05,.14v8.3c0,.06,.02,.1,.05,.14,.03,.03,.08,.05,.14,.05m-5.83,0h1.96c.06,0,.1-.02,.14-.05,.03-.03,.05-.08,.05-.14v-8.3c0-.06-.02-.1-.05-.14-.03-.03-.08-.05-.14-.05h-1.96c-.06,0-.1,.02-.14,.05-.03,.03-.05,.08-.05,.14v8.3c0,.06,.02,.1,.05,.14,.03,.03,.08,.05,.14,.05m-6.82-1.99h-1.13s-.06-.02-.06-.06v-1.3s.02-.06,.06-.06h1.14c.58,0,.87,.23,.87,.69,0,.49-.29,.73-.88,.73m-1.13-4.68h1.02c.6,0,.9,.23,.9,.68s-.3,.68-.9,.68h-1.02s-.06-.02-.06-.06v-1.24s.02-.06,.06-.06m3.26,2.17c.63-.35,.94-.92,.94-1.71,0-.88-.27-1.51-.8-1.89-.53-.38-1.33-.56-2.38-.56h-3.22c-.06,0-.1,.02-.14,.05-.03,.03-.05,.08-.05,.14v8.3c0,.06,.02,.1,.05,.14,.03,.03,.08,.05,.14,.05h3.33c.95,0,1.72-.2,2.32-.6,.59-.4,.89-1.02,.89-1.88,0-.45-.09-.84-.26-1.16-.17-.32-.45-.59-.82-.79-.03-.03-.03-.05,0-.07m-11.29,4.51h1.96c.06,0,.1-.02,.14-.05,.03-.03,.05-.08,.05-.14v-8.3c0-.06-.02-.1-.05-.14-.03-.03-.08-.05-.14-.05h-1.96c-.06,0-.1,.02-.14,.05-.03,.03-.05,.08-.05,.14v8.3c0,.06,.02,.1,.05,.14,.03,.03,.08,.05,.14,.05m-6.02-8.48v4.12s0,.05-.01,.06c-.02,0-.03,0-.05-.03l-2.51-4.21c-.05-.08-.12-.12-.22-.12h-1.87c-.06,0-.1,.02-.14,.05-.03,.03-.05,.08-.05,.14v8.3c0,.06,.02,.1,.05,.14,.03,.03,.08,.05,.14,.05h1.96c.06,0,.1-.02,.14-.05,.03-.03,.05-.08,.05-.14l-.03-4.12s0-.05,.03-.06c.02,0,.03,0,.05,.03l2.53,4.21c.05,.08,.12,.12,.22,.12h1.87c.06,0,.1-.02,.14-.05,.03-.03,.05-.08,.05-.14v-8.3c0-.06-.02-.1-.05-.14-.03-.03-.08-.05-.14-.05h-1.96c-.06,0-.1,.02-.14,.05-.03,.03-.05,.08-.05,.14m-8.17,1.62v-1.62c0-.06-.02-.1-.05-.14-.03-.03-.08-.05-.14-.05h-5.91c-.06,0-.1,.02-.14,.05-.03,.03-.05,.08-.05,.14v8.3c0,.06,.02,.1,.05,.14,.03,.03,.08,.05,.14,.05h5.91c.06,0,.1-.02,.14-.05,.03-.03,.05-.08,.05-.14v-1.62c0-.06-.02-.1-.05-.14s-.08-.05-.14-.05h-3.7s-.06-.02-.06-.06v-1.29s.02-.06,.06-.06h2.29c.06,0,.1-.02,.14-.05s.05-.08,.05-.14v-1.61c0-.06-.02-.1-.05-.14s-.08-.05-.14-.05h-2.29s-.06-.02-.06-.06v-1.16s.02-.06,.06-.06h3.7c.06,0,.1-.02,.14-.05,.03-.03,.05-.08,.05-.14m-9.71-1.81h-6.55c-.06,0-.1,.02-.14,.05-.03,.03-.05,.08-.05,.14v1.63c0,.06,.02,.1,.05,.14,.03,.03,.08,.05,.14,.05h2.02s.06,.02,.06,.06v6.41c0,.06,.02,.1,.05,.14,.03,.03,.08,.05,.14,.05h1.96c.06,0,.1-.02,.14-.05,.03-.03,.05-.08,.05-.14v-6.41s.02-.06,.06-.06h2.08c.06,0,.1-.02,.14-.05,.03-.03,.05-.08,.05-.14v-1.63c0-.06-.02-.1-.05-.14-.03-.03-.08-.05-.14-.05m-13.19,8.77c.67,0,1.26-.11,1.76-.32,.5-.21,.9-.52,1.18-.92,.28-.4,.42-.88,.42-1.43s-.17-1.05-.52-1.46c-.35-.4-.78-.68-1.29-.83-.52-.15-.81-.24-.87-.27-.48-.15-.83-.27-1.07-.36-.23-.09-.4-.19-.51-.3-.11-.1-.17-.23-.17-.38,0-.19,.08-.34,.23-.45,.15-.11,.36-.16,.62-.16,.38,0,.68,.1,.9,.3,.22,.2,.34,.43,.34,.67h0c0,.07,.02,.11,.05,.15s.08,.05,.14,.05h1.92c.06,0,.1-.02,.14-.05,.03-.03,.05-.08,.05-.14v-.11c0-.56-.15-1.06-.45-1.5-.3-.44-.72-.78-1.24-1.02-.52-.24-1.11-.36-1.75-.36-.61,0-1.16,.11-1.65,.32-.49,.22-.88,.52-1.16,.92-.28,.4-.42,.86-.42,1.38,0,.78,.28,1.38,.83,1.8,.55,.41,1.24,.74,2.05,.99l.36,.1c.44,.13,.74,.24,.9,.34,.17,.09,.25,.23,.25,.41,0,.16-.07,.3-.2,.43-.13,.13-.35,.19-.66,.19-.41,0-.73-.09-.97-.27-.24-.18-.37-.38-.37-.61v-.07c0-.06-.02-.1-.05-.14s-.08-.05-.14-.05h-1.92c-.06,0-.1,.02-.14,.05s-.05,.08-.05,.14v.17c0,.55,.14,1.04,.43,1.46,.28,.42,.69,.75,1.21,.97,.52,.23,1.13,.34,1.82,.34m-10.15-1.94c-.34,0-.61-.11-.82-.34-.21-.23-.32-.53-.32-.91v-2.43c0-.38,.1-.68,.32-.91,.21-.23,.48-.34,.82-.34s.63,.11,.84,.34c.21,.23,.32,.53,.32,.91v2.43c0,.38-.1,.68-.32,.91-.21,.23-.49,.34-.84,.34m0,1.99c.69,0,1.3-.14,1.83-.41,.52-.28,.93-.67,1.22-1.16,.29-.5,.43-1.08,.43-1.74v-2.33c0-.64-.15-1.21-.43-1.71-.29-.5-.7-.88-1.22-1.15-.52-.27-1.13-.41-1.83-.41s-1.29,.14-1.81,.41c-.52,.27-.93,.66-1.22,1.15-.29,.49-.43,1.06-.43,1.71v2.33c0,.66,.14,1.24,.43,1.74,.29,.5,.7,.89,1.22,1.16,.52,.28,1.13,.41,1.81,.41m-10.07-.05c.67,0,1.26-.11,1.76-.32,.5-.21,.9-.52,1.18-.92,.28-.4,.42-.88,.42-1.43s-.17-1.05-.52-1.46c-.35-.4-.78-.68-1.29-.83-.52-.15-.81-.24-.87-.27-.48-.15-.83-.27-1.07-.36-.23-.09-.4-.19-.51-.3-.11-.1-.17-.23-.17-.38,0-.19,.08-.34,.23-.45,.15-.11,.36-.16,.62-.16,.38,0,.68,.1,.9,.3,.22,.2,.34,.43,.34,.67h0c0,.07,.02,.11,.05,.15s.08,.05,.14,.05h1.92c.06,0,.1-.02,.14-.05s.05-.08,.05-.14v-.11c0-.56-.15-1.06-.45-1.5-.3-.44-.71-.78-1.24-1.02-.52-.24-1.11-.36-1.75-.36s-1.16,.11-1.65,.32c-.49,.22-.88,.52-1.16,.92-.28,.4-.42,.86-.42,1.38,0,.78,.28,1.38,.83,1.8,.55,.41,1.24,.74,2.05,.99l.36,.1c.44,.13,.74,.24,.9,.34,.17,.09,.25,.23,.25,.41,0,.16-.07,.3-.2,.43-.13,.13-.35,.19-.66,.19-.4,0-.73-.09-.97-.27-.24-.18-.36-.38-.36-.61v-.07c0-.06-.02-.1-.05-.14-.03-.03-.08-.05-.14-.05h-1.92c-.06,0-.1,.02-.14,.05-.03,.03-.05,.08-.05,.14v.17c0,.55,.14,1.04,.43,1.46,.28,.42,.69,.75,1.21,.97,.52,.23,1.13,.34,1.82,.34m-11.61-6.96v-1.62c0-.06-.02-.1-.05-.14-.03-.03-.08-.05-.14-.05h-5.91c-.06,0-.1,.02-.14,.05-.03,.03-.05,.08-.05,.14v8.3c0,.06,.02,.1,.05,.14,.03,.03,.08,.05,.14,.05h5.91c.06,0,.1-.02,.14-.05,.03-.03,.05-.08,.05-.14v-1.62c0-.06-.02-.1-.05-.14-.03-.03-.08-.05-.14-.05h-3.7s-.06-.02-.06-.06v-1.29s.02-.06,.06-.06h2.29c.06,0,.1-.02,.14-.05,.03-.03,.05-.08,.05-.14v-1.61c0-.06-.02-.1-.05-.14-.03-.03-.08-.05-.14-.05h-2.29s-.06-.02-.06-.06v-1.16s.02-.06,.06-.06h3.7c.06,0,.1-.02,.14-.05,.03-.03,.05-.08,.05-.14m-14.61,0v-1.62c0-.06-.02-.1-.05-.14-.03-.03-.08-.05-.14-.05h-5.91c-.06,0-.1,.02-.14,.05-.03,.03-.05,.08-.05,.14v8.3c0,.06,.02,.1,.05,.14,.03,.03,.08,.05,.14,.05h5.91c.06,0,.1-.02,.14-.05,.03-.03,.05-.08,.05-.14v-1.62c0-.06-.02-.1-.05-.14-.03-.03-.08-.05-.14-.05h-3.7s-.06-.02-.06-.06v-1.29s.02-.06,.06-.06h2.29c.06,0,.1-.02,.14-.05s.05-.08,.05-.14v-1.61c0-.06-.02-.1-.05-.14s-.08-.05-.14-.05h-2.29s-.06-.02-.06-.06v-1.16s.02-.06,.06-.06h3.7c.06,0,.1-.02,.14-.05,.03-.03,.05-.08,.05-.14m-12.11-1.62v4.12s0,.05-.01,.06c-.02,0-.03,0-.05-.03l-2.51-4.21c-.05-.08-.12-.12-.22-.12h-1.87c-.06,0-.1,.02-.14,.05-.03,.03-.05,.08-.05,.14v8.3c0,.06,.02,.1,.05,.14,.03,.03,.08,.05,.14,.05h1.96c.06,0,.1-.02,.14-.05,.03-.03,.05-.08,.05-.14l-.02-4.12s0-.05,.02-.06c.02,0,.03,0,.05,.03l2.53,4.21c.05,.08,.12,.12,.22,.12h1.87c.06,0,.1-.02,.14-.05,.03-.03,.05-.08,.05-.14v-8.3c0-.06-.02-.1-.05-.14-.03-.03-.08-.05-.14-.05h-1.96c-.06,0-.1,.02-.14,.05-.03,.03-.05,.08-.05,.14m-11.73,6.64c-.34,0-.61-.11-.82-.34-.21-.23-.32-.53-.32-.91v-2.43c0-.38,.1-.68,.32-.91,.21-.23,.48-.34,.82-.34s.62,.11,.84,.34c.21,.23,.32,.53,.32,.91v2.43c0,.38-.11,.68-.32,.91-.21,.23-.49,.34-.84,.34m0,1.99c.69,0,1.3-.14,1.83-.41,.53-.28,.93-.67,1.22-1.16,.29-.5,.43-1.08,.43-1.74v-2.33c0-.64-.15-1.21-.43-1.71-.29-.5-.7-.88-1.22-1.15-.52-.27-1.13-.41-1.83-.41s-1.29,.14-1.81,.41c-.52,.27-.93,.66-1.22,1.15-.29,.49-.43,1.06-.43,1.71v2.33c0,.66,.14,1.24,.43,1.74,.29,.5,.7,.89,1.22,1.16,.52,.28,1.13,.41,1.81,.41m-9-.15h1.96c.06,0,.1-.02,.14-.05,.03-.03,.05-.08,.05-.14v-8.3c0-.06-.02-.1-.05-.14-.03-.03-.08-.05-.14-.05h-1.96c-.06,0-.1,.02-.14,.05-.03,.03-.05,.08-.05,.14v8.3c0,.06,.02,.1,.05,.14,.03,.03,.08,.05,.14,.05m-9.68,0h5.96c.06,0,.1-.02,.14-.05,.03-.03,.05-.08,.05-.14v-1.62c0-.06-.02-.1-.05-.14-.03-.03-.08-.05-.14-.05h-3.49s-.04,0-.05-.02c0-.02,0-.03,.01-.05l3.63-4.4c.06-.06,.09-.14,.09-.23v-1.78c0-.06-.02-.1-.05-.14-.03-.03-.08-.05-.14-.05h-5.96c-.06,0-.1,.02-.14,.05-.03,.03-.05,.08-.05,.14v1.62c0,.06,.02,.1,.05,.14,.03,.03,.08,.05,.14,.05h3.47s.04,0,.05,.02c0,.02,0,.03-.01,.05l-3.6,4.4c-.06,.07-.09,.14-.09,.22v1.8c0,.06,.02,.1,.05,.14,.03,.03,.08,.05,.14,.05m-8.27-3.03l.78-2.77s.02-.04,.04-.04c.02,0,.03,.01,.04,.04l.79,2.77s0,.07-.05,.07h-1.55s-.06-.02-.05-.07m2.69,3.03h2.12c.12,0,.17-.04,.17-.14,0-.03,0-.06-.01-.08l-2.61-8.31c-.03-.1-.1-.15-.21-.15h-2.63c-.11,0-.18,.05-.21,.15l-2.61,8.31c-.04,.14,.01,.21,.16,.21h2.12c.11,0,.18-.05,.21-.16l.27-.97s.04-.05,.06-.05h2.63s.04,.02,.06,.05l.27,.97c.03,.11,.1,.16,.21,.16m-12.56,0h2.09s.1-.01,.14-.04c.04-.03,.07-.07,.07-.12l2.46-8.3c.02-.07,.01-.12-.02-.15-.03-.04-.08-.06-.14-.06h-2.07c-.11,0-.17,.05-.2,.16l-1.2,5.23s-.02,.05-.04,.05-.03-.02-.04-.05l-1.24-5.23c-.02-.11-.09-.16-.2-.16h-2.12c-.12,0-.17,.05-.17,.15,0,.03,0,.05,.01,.06l2.44,8.3s.03,.09,.07,.12c.04,.03,.09,.04,.14,.04m-9.08-1.84c-.34,0-.61-.11-.82-.34-.21-.23-.32-.53-.32-.91v-2.43c0-.38,.1-.68,.32-.91,.21-.23,.48-.34,.82-.34s.63,.11,.84,.34c.21,.23,.32,.53,.32,.91v2.43c0,.38-.1,.68-.32,.91-.21,.23-.49,.34-.84,.34m0,1.99c.69,0,1.3-.14,1.83-.41,.52-.28,.93-.67,1.22-1.16,.29-.5,.43-1.08,.43-1.74v-2.33c0-.64-.14-1.21-.43-1.71-.29-.5-.7-.88-1.22-1.15-.53-.27-1.13-.41-1.83-.41s-1.29,.14-1.81,.41c-.52,.27-.93,.66-1.22,1.15-.29,.49-.43,1.06-.43,1.71v2.33c0,.66,.14,1.24,.43,1.74,.29,.5,.7,.89,1.22,1.16,.52,.28,1.13,.41,1.81,.41m-9.19-8.63v4.12s0,.05-.01,.06c-.02,0-.03,0-.05-.03l-2.51-4.21c-.05-.08-.12-.12-.22-.12h-1.87c-.06,0-.1,.02-.14,.05-.03,.03-.05,.08-.05,.14v8.3c0,.06,.02,.1,.05,.14,.03,.03,.08,.05,.14,.05h1.96c.06,0,.1-.02,.14-.05,.03-.03,.05-.08,.05-.14l-.03-4.12s0-.05,.03-.06c.02,0,.03,0,.05,.03l2.53,4.21c.05,.08,.12,.12,.22,.12h1.87c.06,0,.1-.02,.14-.05,.03-.03,.05-.08,.05-.14v-8.3c0-.06-.02-.1-.05-.14-.03-.03-.08-.05-.14-.05h-1.96c-.06,0-.1,.02-.14,.05-.03,.03-.05,.08-.05,.14m-10.69,0v4.12s0,.05-.01,.06c-.02,0-.03,0-.05-.03l-2.51-4.21c-.05-.08-.12-.12-.22-.12h-1.87c-.06,0-.1,.02-.14,.05-.03,.03-.05,.08-.05,.14v8.3c0,.06,.02,.1,.05,.14,.03,.03,.08,.05,.14,.05h1.96c.06,0,.1-.02,.14-.05,.03-.03,.05-.08,.05-.14l-.02-4.12s0-.05,.02-.06c.02,0,.03,0,.05,.03l2.53,4.21c.05,.08,.12,.12,.22,.12h1.87c.06,0,.1-.02,.14-.05,.03-.03,.05-.08,.05-.14v-8.3c0-.06-.02-.1-.05-.14-.03-.03-.08-.05-.14-.05h-1.96c-.06,0-.1,.02-.14,.05-.03,.03-.05,.08-.05,.14m-10.5,8.48h1.96c.06,0,.1-.02,.14-.05,.03-.03,.05-.08,.05-.14v-8.3c0-.06-.02-.1-.05-.14-.03-.03-.08-.05-.14-.05h-1.96c-.06,0-.1,.02-.14,.05-.03,.03-.05,.08-.05,.14v8.3c0,.06,.02,.1,.05,.14,.03,.03,.08,.05,.14,.05"/>
</svg>